<svg width="85" height="23" viewBox="0 0 85 23" fill="none" xmlns="http://www.w3.org/2000/svg">
<path d="M6.61 9.04C5.49 9.04 4.56 9.38 3.82 10.06C3.08 10.72 2.71 11.53 2.71 12.49V20.35C2.71 21.01 2.49 21.5 2.05 21.82C1.63 22.12 0.98 22.27 0.1 22.27V8.95C0.1 7.47 0.94 6.73 2.62 6.73V8.56C2.3 8.9 2.08 9.2 1.96 9.46L2.08 9.58C3.36 7.68 4.96 6.73 6.88 6.73C7.6 6.73 8.15 6.91 8.53 7.27C8.91 7.61 9.1 8.03 9.1 8.53C9.1 8.89 9.01 9.21 8.83 9.49C8.27 9.19 7.53 9.04 6.61 9.04ZM23.9165 20.05C23.9165 21.53 23.0765 22.27 21.3965 22.27V20.35C21.5765 20.17 21.7865 19.9 22.0265 19.54L21.9065 19.42C21.3065 20.28 20.5465 20.97 19.6265 21.49C18.7265 22.01 17.7365 22.27 16.6565 22.27C15.5765 22.27 14.6165 22.04 13.7765 21.58C12.9565 21.12 12.3165 20.48 11.8565 19.66C11.4165 18.84 11.1965 17.92 11.1965 16.9V8.65C11.1965 7.99 11.4165 7.51 11.8565 7.21C12.2965 6.89 12.9565 6.73 13.8365 6.73V16.78C13.8365 17.74 14.1165 18.51 14.6765 19.09C15.2565 19.67 16.1065 19.96 17.2265 19.96C17.9665 19.96 18.6465 19.81 19.2665 19.51C19.8865 19.19 20.3765 18.77 20.7365 18.25C21.1165 17.71 21.3065 17.13 21.3065 16.51V8.65C21.3065 7.99 21.5165 7.51 21.9365 7.21C22.3765 6.89 23.0365 6.73 23.9165 6.73V20.05ZM33.1884 22.27C32.5484 22.27 32.0184 22.13 31.5984 21.85C31.1784 21.55 30.8884 21.14 30.7284 20.62L26.9184 6.97C27.1984 6.81 27.5784 6.73 28.0584 6.73C28.4984 6.73 28.8684 6.83 29.1684 7.03C29.4684 7.23 29.6584 7.52 29.7384 7.9L32.2584 17.86L31.9584 19.15L32.1084 19.21L35.3784 7.6C35.4584 7.34 35.6084 7.13 35.8284 6.97C36.0484 6.81 36.3184 6.73 36.6384 6.73C36.9584 6.73 37.2284 6.81 37.4484 6.97C37.6684 7.13 37.8184 7.34 37.8984 7.6L40.7484 17.98L40.3884 19.27L40.5684 19.33L43.5084 7.9C43.5884 7.52 43.7784 7.23 44.0784 7.03C44.3784 6.83 44.7484 6.73 45.1884 6.73C45.6684 6.73 46.0484 6.81 46.3284 6.97L42.5184 20.62C42.3784 21.14 42.0784 21.55 41.6184 21.85C41.1584 22.13 40.6084 22.27 39.9684 22.27L36.3684 9.31L36.2484 9.34L36.5484 10.45L33.1884 22.27ZM53.4198 22.27C51.6998 22.27 50.3098 21.81 49.2498 20.89C48.2098 19.97 47.6898 18.76 47.6898 17.26C47.6898 15.74 48.2398 14.52 49.3398 13.6C50.4398 12.66 51.8898 12.19 53.6898 12.19C55.6098 12.19 57.1898 12.87 58.4298 14.23L58.5498 14.11C58.3298 13.87 58.0798 13.62 57.7998 13.36V12.1C57.7998 11.08 57.4798 10.29 56.8398 9.73C56.1998 9.17 55.2898 8.89 54.1098 8.89C52.0098 8.89 50.5098 9.72 49.6098 11.38C49.2898 11.22 49.0198 11.01 48.7998 10.75C48.5998 10.47 48.4998 10.19 48.4998 9.91C48.4998 9.37 48.7698 8.86 49.3098 8.38C49.8498 7.88 50.5598 7.48 51.4398 7.18C52.3398 6.88 53.2798 6.73 54.2598 6.73C56.1598 6.73 57.6498 7.2 58.7298 8.14C59.8298 9.08 60.3798 10.38 60.3798 12.04V20.26C60.3798 20.96 60.1798 21.47 59.7798 21.79C59.3798 22.11 58.7498 22.27 57.8898 22.27V20.86C58.3098 20.42 58.5398 20.16 58.5798 20.08L58.4598 19.96C57.1598 21.5 55.4798 22.27 53.4198 22.27ZM53.8698 20.2C55.1098 20.2 56.0798 19.94 56.7798 19.42C57.4998 18.9 57.8598 18.18 57.8598 17.26C57.8598 16.34 57.5098 15.61 56.8098 15.07C56.1098 14.53 55.1498 14.26 53.9298 14.26C52.7898 14.26 51.8898 14.53 51.2298 15.07C50.5898 15.59 50.2698 16.32 50.2698 17.26C50.2698 18.2 50.5798 18.93 51.1998 19.45C51.8398 19.95 52.7298 20.2 53.8698 20.2ZM66.4159 4.48C65.8559 4.48 65.3859 4.3 65.0059 3.94C64.6259 3.58 64.4359 3.13 64.4359 2.59C64.4359 2.05 64.6259 1.61 65.0059 1.27C65.3859 0.909999 65.8559 0.729998 66.4159 0.729998C66.9559 0.729998 67.4159 0.909999 67.7959 1.27C68.1759 1.61 68.3659 2.05 68.3659 2.59C68.3659 3.13 68.1759 3.58 67.7959 3.94C67.4159 4.3 66.9559 4.48 66.4159 4.48ZM65.0959 8.65C65.0959 7.99 65.3059 7.51 65.7259 7.21C66.1659 6.89 66.8259 6.73 67.7059 6.73V20.35C67.7059 21.01 67.4859 21.5 67.0459 21.82C66.6259 22.12 65.9759 22.27 65.0959 22.27V8.65ZM78.0705 22.27C76.3505 22.27 74.9505 21.8 73.8705 20.86C72.8105 19.9 72.2805 18.63 72.2805 17.05V11.92C72.2805 10.9 72.5305 10 73.0305 9.22C73.5305 8.42 74.2205 7.81 75.1005 7.39C76.0005 6.95 77.0305 6.73 78.1905 6.73C79.1305 6.73 80.0005 6.93 80.8005 7.33C81.6005 7.71 82.3005 8.22 82.9005 8.86L82.9905 8.71C82.8505 8.51 82.6405 8.29 82.3605 8.05V2.77C82.3605 2.11 82.5805 1.61 83.0205 1.27C83.4605 0.909999 84.1205 0.729998 85.0005 0.729998V20.14C85.0005 20.8 84.8005 21.32 84.4005 21.7C84.0205 22.08 83.4005 22.27 82.5405 22.27V20.59C82.8205 20.23 83.0105 19.97 83.1105 19.81L83.0205 19.69C82.3805 20.49 81.6705 21.12 80.8905 21.58C80.1105 22.04 79.1705 22.27 78.0705 22.27ZM78.6405 19.96C79.7005 19.96 80.5905 19.69 81.3105 19.15C82.0305 18.59 82.3905 17.9 82.3905 17.08V11.89C82.3905 11.09 82.0505 10.42 81.3705 9.88C80.6905 9.32 79.7705 9.04 78.6105 9.04C77.4305 9.04 76.5105 9.31 75.8505 9.85C75.2105 10.37 74.8905 11.1 74.8905 12.04V16.93C74.8905 17.91 75.2105 18.66 75.8505 19.18C76.5105 19.7 77.4405 19.96 78.6405 19.96Z" fill="white"/>
</svg>
